<?xml version="1.0" encoding="utf-8"?>
<!-- Generator: Adobe Illustrator 25.2.3, SVG Export Plug-In . SVG Version: 6.00 Build 0)  -->
<svg version="1.1" id="Слой_1" xmlns="http://www.w3.org/2000/svg" xmlns:xlink="http://www.w3.org/1999/xlink" x="0px" y="0px"
	 viewBox="0 0 53.1 27" style="enable-background:new 0 0 53.1 27;" xml:space="preserve">
<style type="text/css">
	.st0{fill:#9A9A9A;}
</style>
<path class="st0" d="M52.7,15.1l-9.2,11.2c-0.3,0.4-0.7,0.5-1,0.5s-0.7-0.2-1-0.5c-0.6-0.7-0.6-1.8,0-2.6l6.7-8.1H26.5
	c-0.8,0-1.5-0.8-1.5-1.8c0-1,0.7-1.8,1.5-1.8h21.6l-6.7-8.1c-0.6-0.7-0.6-1.8,0-2.6c0.6-0.7,1.5-0.7,2.1,0l9.2,11.2
	C53.3,13.3,53.3,14.5,52.7,15.1z"/>
<path class="st0" d="M1.3,11.6h47.6c0.7,0,1.3,1,1.3,2.2v0c0,1.2-0.6,2.2-1.3,2.2H1.3c-0.7,0-1.3-1-1.3-2.2v0
	C0,12.6,0.6,11.6,1.3,11.6z"/>
</svg>
