<?xml version="1.0" encoding="utf-8"?>
<!-- Generator: Adobe Illustrator 25.2.3, SVG Export Plug-In . SVG Version: 6.00 Build 0)  -->
<svg version="1.1" id="Слой_1" xmlns="http://www.w3.org/2000/svg" xmlns:xlink="http://www.w3.org/1999/xlink" x="0px" y="0px"
	 viewBox="0 0 92 27" style="enable-background:new 0 0 92 27;" xml:space="preserve">
<style type="text/css">
	.st0{fill:#FF5722;}
</style>
<path class="st0" d="M0.8,12.2L10,1c0.3-0.4,0.7-0.5,1-0.5s0.7,0.2,1,0.5c0.6,0.7,0.6,1.8,0,2.6l-6.7,8.1h21.6
	c0.8,0,1.5,0.8,1.5,1.8c0,1-0.7,1.8-1.5,1.8H5.3l6.7,8.1c0.6,0.7,0.6,1.8,0,2.6c-0.6,0.7-1.5,0.7-2.1,0L0.7,14.8
	C0.2,14,0.2,12.9,0.8,12.2z"/>
<path class="st0" d="M5.5,11.3h84.2c1.2,0,2.2,1,2.2,2.2l0,0c0,1.2-1,2.2-2.2,2.2H5.5c-1.2,0-2.2-1-2.2-2.2l0,0
	C3.3,12.3,4.3,11.3,5.5,11.3z"/>
</svg>
