<svg width="92" height="27" viewBox="0 0 92 27" fill="none" xmlns="http://www.w3.org/2000/svg">
<path d="M91.5517 15.1306L82.3476 26.3208C82.0519 26.6789 81.6822 26.8579 81.3126 26.8579C80.943 26.8579 80.5733 26.6789 80.2776 26.3208C79.6862 25.6046 79.6862 24.4856 80.2776 23.7694L86.9681 15.6229H65.381C64.5678 15.6229 63.9025 14.8173 63.9025 13.8325C63.9025 12.8478 64.5678 12.0421 65.381 12.0421H86.9681L80.2776 3.89563C79.6862 3.17946 79.6862 2.06043 80.2776 1.34426C80.869 0.628086 81.7931 0.628086 82.3846 1.34426L91.5887 12.5345C92.1431 13.2954 92.1431 14.4592 91.5517 15.1306Z" fill="#FF5722"/>
<rect x="0.314453" y="11.6396" width="88.7142" height="4.47607" rx="2.23804" fill="#FF5722"/>
</svg>
