<svg width="53" height="27" viewBox="0 0 53 27" fill="none" xmlns="http://www.w3.org/2000/svg">
<path d="M0.762882 15.1306L9.96696 26.3208C10.2627 26.6789 10.6323 26.8579 11.002 26.8579C11.3716 26.8579 11.7413 26.6789 12.037 26.3208C12.6284 25.6046 12.6284 24.4856 12.037 23.7694L5.34643 15.6229H26.9335C27.7468 15.6229 28.4121 14.8173 28.4121 13.8325C28.4121 12.8478 27.7468 12.0421 26.9335 12.0421H5.34643L12.037 3.89563C12.6284 3.17946 12.6284 2.06043 12.037 1.34426C11.4455 0.628086 10.5214 0.628086 9.93 1.34426L0.725904 12.5345C0.17144 13.2954 0.171455 14.4592 0.762882 15.1306Z" fill="#9A9A9A"/>
<rect width="50" height="4.00195" rx="2.00098" transform="matrix(-1 0 0 1 53 11.8516)" fill="#9A9A9A"/>
</svg>
